<svg width="134" height="36" viewBox="0 0 134 36" fill="none" xmlns="http://www.w3.org/2000/svg">
<path d="M16.4725 1.98547L30.978 8.14243L16.4725 14.2994L1.96704 8.14243L16.4725 1.98547Z" fill="#19A0FC" stroke="#050315" stroke-width="2.5" stroke-linejoin="round"/>
<path d="M1.96704 8.14246L16.4725 14.2994V34.0145L1.96704 27.8575V8.14246Z" fill="#3BB3FF" stroke="#050315" stroke-width="2.5" stroke-linejoin="round"/>
<path d="M16.4725 14.2994L30.978 8.14246V27.8575L16.4725 34.0145V14.2994Z" fill="#147EF4" stroke="#050315" stroke-width="2.5" stroke-linejoin="round"/>
<path d="M16.4725 1.98547L30.978 8.14243V27.8575L16.4725 34.0145L1.96704 27.8575V8.14243L16.4725 1.98547Z" stroke="#050315" stroke-width="2.5" stroke-linejoin="round"/>
<path d="M1.96704 8.14246L16.4725 14.2994L30.978 8.14246" stroke="#050315" stroke-width="2.5" stroke-linecap="round"/>
<path d="M16.4725 14.2994V34.0145" stroke="#050315" stroke-width="2.5" stroke-linecap="round"/>
<path d="M123.17 28.7174V7.03619C123.17 5.53942 121.98 4.32605 120.511 4.32605L108.101 4.32605C106.633 4.32605 105.442 5.53942 105.442 7.03619V28.7174C105.442 30.2141 106.633 31.4275 108.101 31.4275H120.511C121.98 31.4275 123.17 30.2141 123.17 28.7174Z" fill="#3BB3FF" stroke="#050315" stroke-width="2.5"/>
<path d="M54.1482 13.3607H47.9422C47.2079 13.3607 46.6125 13.9674 46.6125 14.7158V21.0403C46.6125 21.7887 47.2079 22.3954 47.9422 22.3954H54.1482C54.8825 22.3954 55.4778 21.7887 55.4778 21.0403V14.7158C55.4778 13.9674 54.8825 13.3607 54.1482 13.3607Z" fill="#3BB3FF" stroke="#050315" stroke-width="2.5"/>
<path d="M63.0111 4.32605H56.8051C56.0708 4.32605 55.4755 4.93274 55.4755 5.68112V12.0056C55.4755 12.754 56.0708 13.3607 56.8051 13.3607H63.0111C63.7454 13.3607 64.3407 12.754 64.3407 12.0056V5.68112C64.3407 4.93274 63.7454 4.32605 63.0111 4.32605Z" fill="#3BB3FF" stroke="#050315" stroke-width="2.5"/>
<path d="M63.0111 22.3928H56.8051C56.0708 22.3928 55.4755 22.9995 55.4755 23.7479V30.0724C55.4755 30.8208 56.0708 31.4275 56.8051 31.4275H63.0111C63.7454 31.4275 64.3407 30.8208 64.3407 30.0724V23.7479C64.3407 22.9995 63.7454 22.3928 63.0111 22.3928Z" fill="#3BB3FF" stroke="#050315" stroke-width="2.5"/>
<path d="M45.2829 4.32605H39.077C38.3426 4.32605 37.7473 4.93274 37.7473 5.68112V30.0724C37.7473 30.8208 38.3426 31.4275 39.077 31.4275H45.2829C46.0173 31.4275 46.6126 30.8208 46.6126 30.0724V5.68112C46.6126 4.93274 46.0173 4.32605 45.2829 4.32605Z" fill="#3BB3FF" stroke="#050315" stroke-width="2.5"/>
<path d="M79.1291 4.32605H72.9232C72.1888 4.32605 71.5935 4.93274 71.5935 5.68112V30.0724C71.5935 30.8208 72.1888 31.4275 72.9232 31.4275H79.1291C79.8635 31.4275 80.4588 30.8208 80.4588 30.0724V5.68112C80.4588 4.93274 79.8635 4.32605 79.1291 4.32605Z" fill="#3BB3FF" stroke="#050315" stroke-width="2.5"/>
<path d="M98.1869 30.0748V23.7503C98.1869 23.002 97.5916 22.3953 96.8572 22.3953H72.9232C72.1888 22.3953 71.5935 23.002 71.5935 23.7503V30.0748C71.5935 30.8232 72.1888 31.4299 72.9232 31.4299H96.8572C97.5916 31.4299 98.1869 30.8232 98.1869 30.0748Z" fill="#3BB3FF" stroke="#050315" stroke-width="2.5"/>
<path d="M98.1868 30.0724V5.68112C98.1868 4.93274 97.5915 4.32605 96.8571 4.32605L90.6512 4.32605C89.9168 4.32605 89.3215 4.93274 89.3215 5.68112V30.0724C89.3215 30.8208 89.9168 31.4275 90.6512 31.4275H96.8571C97.5915 31.4275 98.1868 30.8208 98.1868 30.0724Z" fill="#3BB3FF" stroke="#050315" stroke-width="2.5"/>
<path d="M132.033 28.7149V16.0684C132.033 14.5716 130.842 13.3583 129.374 13.3583L108.099 13.3583C106.63 13.3583 105.44 14.5716 105.44 16.0684V28.7149C105.44 30.2117 106.63 31.4251 108.099 31.4251H129.374C130.842 31.4251 132.033 30.2117 132.033 28.7149Z" fill="#3BB3FF" stroke="#050315" stroke-width="2.5"/>
</svg>
