<!-- Generated by IcoMoon.io -->
<svg version="1.1" xmlns="http://www.w3.org/2000/svg" width="24" height="24" viewBox="0 0 24 24">
<path fill="#3bb3ff" d="M2.796 15.387h8.761c-0.994-0.089-1.916-0.56-2.574-1.316s-1.001-1.737-0.959-2.74c0.042-1.004 0.467-1.952 1.186-2.648s1.677-1.087 2.675-1.091h2.862c-0.428-0.579-0.734-1.24-0.899-1.942s-0.187-1.431-0.063-2.141 0.39-1.388 0.784-1.992c0.393-0.603 0.904-1.12 1.503-1.518h-13.276c-0.609 0.001-1.193 0.245-1.624 0.679s-0.672 1.022-0.672 1.635v10.764c0 1.275 1.029 2.311 2.296 2.311v-0.002zM18.987 7.596c-0.42 0.010-0.837-0.065-1.227-0.22s-0.746-0.386-1.046-0.682c-0.3-0.295-0.539-0.648-0.701-1.037s-0.247-0.807-0.247-1.229 0.084-0.84 0.247-1.229c0.163-0.389 0.401-0.742 0.701-1.037s0.656-0.527 1.046-0.682c0.39-0.155 0.807-0.229 1.227-0.22 0.822 0.019 1.604 0.361 2.179 0.953s0.896 1.386 0.896 2.214-0.322 1.622-0.896 2.214c-0.575 0.592-1.356 0.934-2.179 0.953zM10.137 11.498c0-0.974 0.784-1.762 1.75-1.762h7.099c0.593-0 1.18 0.117 1.728 0.345s1.046 0.563 1.465 0.985c0.419 0.422 0.752 0.923 0.979 1.474s0.343 1.142 0.343 1.739v2.066c0 0.912-0.736 1.651-1.642 1.651h-0.293l-0.48 4.474c-0.045 0.42-0.243 0.809-0.555 1.091s-0.717 0.439-1.137 0.44h-0.855c-0.411-0-0.808-0.15-1.118-0.421s-0.512-0.647-0.569-1.056l-1.283-9.264h-3.68c-0.966 0-1.75-0.789-1.75-1.761h-0.002z"></path>
</svg>
