<!-- Generated by IcoMoon.io -->
<svg version="1.1" xmlns="http://www.w3.org/2000/svg" width="24" height="24" viewBox="0 0 24 24">
<path fill="#3bb3ff" d="M14.4 12h1.8v3.384l2.928 1.692-0.9 1.56-3.828-2.208v-4.428zM2.4 0h16.8c0.636 0 1.247 0.253 1.697 0.703s0.703 1.061 0.703 1.697v7.32c1.488 1.512 2.4 3.588 2.4 5.88 0 2.228-0.885 4.364-2.46 5.94s-3.712 2.46-5.94 2.46c-2.292 0-4.368-0.912-5.88-2.4h-7.32c-0.637 0-1.247-0.253-1.697-0.703s-0.703-1.061-0.703-1.697v-16.8c0-0.637 0.253-1.247 0.703-1.697s1.061-0.703 1.697-0.703zM2.4 15.6v3.6h5.604c-0.516-1.092-0.804-2.316-0.804-3.6h-4.8zM2.4 7.2h7.2v-3.6h-7.2v3.6zM19.2 7.2v-3.6h-7.2v3.6h7.2zM2.4 13.2h5.148c0.408-1.38 1.164-2.616 2.172-3.6h-7.32v3.6zM15.6 9.78c-1.544 0-3.024 0.613-4.115 1.705s-1.705 2.572-1.705 4.115c0 3.216 2.604 5.82 5.82 5.82 0.764 0 1.521-0.151 2.227-0.443s1.348-0.721 1.888-1.262c0.54-0.54 0.969-1.182 1.262-1.888s0.443-1.463 0.443-2.227c0-3.216-2.604-5.82-5.82-5.82z"></path>
</svg>
