<!-- Generated by IcoMoon.io -->
<svg fill="currentColor" version="1.1" xmlns="http://www.w3.org/2000/svg" width="24" height="24" viewBox="0 0 24 24">
<path d="M24 12c0-3.183-1.264-6.235-3.515-8.485s-5.303-3.515-8.485-3.515-6.235 1.264-8.485 3.515c-2.25 2.25-3.515 5.303-3.515 8.485s1.264 6.235 3.515 8.485c2.25 2.25 5.303 3.515 8.485 3.515s6.235-1.264 8.485-3.515c2.25-2.25 3.515-5.303 3.515-8.485zM12 5.571c0.341 0 0.668 0.135 0.909 0.377s0.377 0.568 0.377 0.909v3.857h3.857c0.341 0 0.668 0.135 0.909 0.377s0.377 0.568 0.377 0.909-0.135 0.668-0.377 0.909c-0.241 0.241-0.568 0.377-0.909 0.377h-3.857v3.857c0 0.341-0.135 0.668-0.377 0.909s-0.568 0.377-0.909 0.377-0.668-0.135-0.909-0.377c-0.241-0.241-0.377-0.568-0.377-0.909v-3.857h-3.857c-0.341 0-0.668-0.135-0.909-0.377s-0.377-0.568-0.377-0.909 0.135-0.668 0.377-0.909c0.241-0.241 0.568-0.377 0.909-0.377h3.857v-3.857c0-0.341 0.135-0.668 0.377-0.909s0.568-0.377 0.909-0.377z"></path>
</svg>
