<!-- Generated by IcoMoon.io -->
<svg version="1.1" xmlns="http://www.w3.org/2000/svg" width="24" height="24" viewBox="0 0 24 24">
<path fill="#3bb3ff" d="M22.667 21.333h-1.333v-18.667c0-0.733-0.6-1.333-1.333-1.333h-5.333c0-0.733-0.6-1.333-1.333-1.333h-9.333c-0.733 0-1.333 0.6-1.333 1.333v20h-1.333c-0.733 0-1.333 0.6-1.333 1.333s0.6 1.333 1.333 1.333h12c0.733 0 1.333-0.6 1.333-1.333v-18.667h4v18.667c0 0.733 0.6 1.333 1.333 1.333h2.667c0.733 0 1.333-0.6 1.333-1.333s-0.6-1.333-1.333-1.333zM12 13.333h-2.667v-2.667h2.667v2.667z"></path>
</svg>
