<!-- Generated by IcoMoon.io -->
<svg fill="currentColor" version="1.1" xmlns="http://www.w3.org/2000/svg" width="24" height="24" viewBox="0 0 24 24">
<path d="M22.799 4.801h-6v-2.004c-0.028-0.768-0.36-1.494-0.922-2.018s-1.309-0.804-2.078-0.778h-3.6c-0.768-0.026-1.515 0.254-2.078 0.778s-0.894 1.25-0.922 2.018v2.004h-6c-0.318 0-0.623 0.126-0.848 0.351s-0.351 0.53-0.351 0.849 0.126 0.623 0.351 0.848c0.225 0.225 0.53 0.351 0.848 0.351h1.2v13.199c0 0.955 0.379 1.87 1.054 2.546s1.591 1.054 2.545 1.054h11.999c0.955 0 1.87-0.379 2.545-1.054s1.054-1.591 1.054-2.546v-13.199h1.2c0.318 0 0.623-0.126 0.848-0.351s0.351-0.53 0.351-0.848-0.126-0.623-0.351-0.849c-0.225-0.225-0.53-0.351-0.848-0.351zM9.6 2.797c0-0.192 0.252-0.396 0.6-0.396h3.6c0.348 0 0.6 0.204 0.6 0.396v2.004h-4.8v-2.004z"></path>
</svg>
