<!-- Generated by IcoMoon.io -->
<svg fill="currentColor" version="1.1" xmlns="http://www.w3.org/2000/svg" width="24" height="24" viewBox="0 0 24 24">
<path d="M2.667 21.333h1.9l13.033-13.033-1.9-1.9-13.033 13.033v1.9zM-0 24v-5.667l17.6-17.567c0.267-0.244 0.561-0.433 0.883-0.567s0.661-0.2 1.017-0.2c0.356 0 0.7 0.067 1.033 0.2s0.622 0.333 0.867 0.6l1.833 1.867c0.267 0.244 0.461 0.533 0.583 0.867s0.183 0.667 0.183 1c0 0.356-0.061 0.694-0.183 1.017s-0.317 0.617-0.583 0.883l-17.567 17.567h-5.667zM16.633 7.367l-0.933-0.967 1.9 1.9-0.967-0.933z"></path>
</svg>
