<!-- Generated by IcoMoon.io -->
<svg version="1.1" xmlns="http://www.w3.org/2000/svg" width="24" height="24" viewBox="0 0 24 24">
<path fill="#3bb3ff" d="M1.8 2.5c-0.993 0-1.8 0.799-1.8 1.781v2.375c0 0.328 0.268 0.594 0.6 0.594h3v-2.969c0-0.982-0.807-1.781-1.8-1.781zM9.6 17.81v-2.248h10.8v-9.5c0-1.965-1.615-3.563-3.6-3.563h-12.615c0.381 0.498 0.615 1.11 0.615 1.781v13.656c0 1.443 1.299 2.585 2.803 2.342 1.18-0.19 1.997-1.286 1.997-2.47zM10.8 16.75v1.188c0 1.964-1.615 3.563-3.6 3.563h12.6c2.32 0 4.2-1.861 4.2-4.156 0-0.328-0.268-0.594-0.6-0.594h-12.6z"></path>
</svg>
