<!-- Generated by IcoMoon.io -->
<svg version="1.1" xmlns="http://www.w3.org/2000/svg" width="24" height="24" viewBox="0 0 24 24">
<path fill="#3bb3ff" d="M4.191 1c0.991 0 1.796 0.821 1.796 1.833v18.333c0 1.012-0.805 1.833-1.796 1.833h-2.395c-0.991 0-1.796-0.821-1.796-1.833v-18.333c0-1.012 0.805-1.833 1.796-1.833h2.395zM11.376 1c0.992 0 1.796 0.821 1.796 1.833v18.333c0 1.012-0.805 1.833-1.796 1.833h-2.395c-0.991 0-1.796-0.821-1.796-1.833v-18.333c0-1.012 0.805-1.833 1.796-1.833h2.395zM20.094 4.818l3.849 15.301c0.247 0.98-0.332 1.98-1.293 2.232l-2.246 0.588c-0.962 0.252-1.94-0.339-2.187-1.32l-3.849-15.298c-0.247-0.981 0.332-1.98 1.293-2.232l2.246-0.59c0.962-0.251 1.94 0.341 2.187 1.32z"></path>
</svg>
