<svg width="24" height="24" viewBox="0 0 24 24" fill="none" xmlns="http://www.w3.org/2000/svg">
<g clip-path="url(#clip0_42_272)">
<path fill-rule="evenodd" clip-rule="evenodd" d="M24 12C24.0041 15.0907 22.8116 18.063 20.6726 20.2938C19.5574 21.4627 18.2172 22.3937 16.7326 23.0306C15.248 23.6676 13.6497 23.9974 12.0343 24H12H11.9657C10.3503 23.9974 8.752 23.6676 7.2674 23.0306C5.7828 22.3937 4.44253 21.4627 3.32743 20.2938C1.97134 18.8758 0.98365 17.1468 0.450868 15.2584C-0.0819124 13.3701 -0.143526 11.3799 0.271423 9.4622C0.68637 7.5445 1.56523 5.7578 2.831 4.25859C4.09678 2.7594 5.71085 1.59345 7.53185 0.862875C9.35285 0.132301 11.3252 -0.140608 13.2761 0.0680539C15.2271 0.276716 17.0972 0.96058 18.7225 2.05975C20.3477 3.15892 21.6788 4.63985 22.5988 6.37285C23.5189 8.1058 24 10.0379 24 12ZM19.2737 18C18.3899 16.9266 17.2792 16.0625 16.0215 15.4697C14.7638 14.8768 13.3904 14.5701 12 14.5715C10.6096 14.5701 9.23615 14.8768 7.97845 15.4697C6.72075 16.0625 5.6101 16.9266 4.72628 18C5.6101 19.0735 6.72075 19.9376 7.97845 20.5305C9.23615 21.1233 10.6096 21.43 12 21.4286C13.3904 21.43 14.7638 21.1233 16.0215 20.5305C17.2792 19.9376 18.3899 19.0735 19.2737 18ZM12 12.8572C12.5628 12.8572 13.1201 12.7463 13.64 12.5309C14.16 12.3156 14.6325 11.9999 15.0304 11.6019C15.4284 11.2039 15.7441 10.7315 15.9595 10.2115C16.1749 9.6916 16.2857 9.1343 16.2857 8.5715C16.2857 8.00865 16.1749 7.4514 15.9595 6.9314C15.7441 6.41145 15.4284 5.939 15.0304 5.541C14.6325 5.14305 14.16 4.82738 13.64 4.612C13.1201 4.39662 12.5628 4.28577 12 4.28577C10.8633 4.28577 9.77325 4.7373 8.96955 5.541C8.1658 6.34475 7.7143 7.43485 7.7143 8.5715C7.7143 9.7081 8.1658 10.7982 8.96955 11.6019C9.77325 12.4056 10.8633 12.8572 12 12.8572Z" fill="#3BB3FF"/>
</g>
<defs>
<clipPath id="clip0_42_272">
<rect width="24" height="24" fill="white"/>
</clipPath>
</defs>
</svg>
