<!-- Generated by IcoMoon.io -->
<svg fill="currentColor" version="1.1" xmlns="http://www.w3.org/2000/svg" width="24" height="24" viewBox="0 0 24 24">
<path d="M17.551 6.062c-1.513-1.416-3.476-2.193-5.558-2.191-3.748 0.003-6.984 2.573-7.877 6.138-0.065 0.259-0.296 0.443-0.564 0.443h-2.773c-0.363 0-0.638-0.329-0.571-0.686 1.047-5.56 5.928-9.766 11.792-9.766 3.215 0 6.135 1.265 8.289 3.323l1.728-1.728c0.732-0.732 1.982-0.213 1.982 0.821v6.487c0 0.641-0.52 1.161-1.161 1.161h-6.487c-1.035 0-1.553-1.251-0.821-1.982l2.020-2.020zM1.161 13.935h6.487c1.035 0 1.553 1.251 0.821 1.982l-2.020 2.020c1.513 1.416 3.476 2.193 5.559 2.191 3.746-0.003 6.983-2.571 7.877-6.138 0.065-0.259 0.296-0.443 0.564-0.443h2.773c0.363 0 0.639 0.329 0.571 0.686-1.047 5.56-5.928 9.766-11.792 9.766-3.215 0-6.135-1.265-8.289-3.324l-1.728 1.728c-0.732 0.732-1.982 0.213-1.982-0.821v-6.487c0-0.641 0.52-1.161 1.161-1.161z"></path>
</svg>
