<!-- Generated by IcoMoon.io -->
<svg fill="currentColor" version="1.1" xmlns="http://www.w3.org/2000/svg" width="24" height="24" viewBox="0 0 24 24">
<path d="M23.247 5.247l-4.494-4.494c-0.482-0.482-1.136-0.753-1.818-0.753h-14.363c-1.42 0-2.571 1.151-2.571 2.571v18.857c0 1.42 1.151 2.571 2.571 2.571h18.857c1.42 0 2.571-1.151 2.571-2.571v-14.364c0-0.682-0.271-1.336-0.753-1.818zM12 20.571c-1.893 0-3.429-1.535-3.429-3.429s1.535-3.429 3.429-3.429 3.429 1.535 3.429 3.429c0 1.893-1.535 3.429-3.429 3.429zM17.143 4.258v5.385c0 0.355-0.288 0.643-0.643 0.643h-12.429c-0.355 0-0.643-0.288-0.643-0.643v-5.571c0-0.355 0.288-0.643 0.643-0.643h12.242c0.171 0 0.334 0.068 0.455 0.188l0.186 0.186c0.060 0.060 0.107 0.131 0.139 0.209s0.049 0.162 0.049 0.246z"></path>
</svg>
