<!-- Generated by IcoMoon.io -->
<svg version="1.1" xmlns="http://www.w3.org/2000/svg" width="24" height="24" viewBox="0 0 24 24" fill="currentColor">
<path d="M9.471 1.183c0.137-0.347 0.377-0.646 0.69-0.857s0.684-0.325 1.064-0.326h1.549c0.38 0.001 0.751 0.115 1.064 0.325s0.554 0.509 0.69 0.856l0.811 2.050 2.757 1.55 2.226-0.333c0.371-0.050 0.749 0.010 1.086 0.171s0.616 0.417 0.804 0.734l0.753 1.293c0.194 0.322 0.283 0.694 0.256 1.066s-0.169 0.728-0.406 1.020l-1.377 1.716v3.103l1.414 1.716c0.238 0.292 0.38 0.648 0.406 1.020s-0.062 0.744-0.256 1.066l-0.753 1.293c-0.188 0.317-0.467 0.573-0.804 0.734s-0.714 0.221-1.085 0.171l-2.226-0.333-2.755 1.55-0.811 2.049c-0.136 0.347-0.377 0.646-0.691 0.858s-0.685 0.324-1.065 0.325h-1.586c-0.38-0.001-0.75-0.115-1.063-0.326s-0.553-0.509-0.69-0.856l-0.811-2.050-2.756-1.55-2.226 0.333c-0.371 0.050-0.749-0.010-1.085-0.171s-0.616-0.417-0.804-0.734l-0.754-1.293c-0.193-0.322-0.283-0.693-0.256-1.066s0.169-0.728 0.406-1.020l1.376-1.716v-3.103l-1.414-1.716c-0.238-0.292-0.38-0.648-0.406-1.020s0.062-0.744 0.256-1.066l0.754-1.293c0.188-0.317 0.467-0.573 0.804-0.734s0.714-0.221 1.085-0.171l2.226 0.333 2.793-1.55 0.811-2.049zM12 15.857c1.046 0 2.049-0.407 2.788-1.13s1.155-1.704 1.155-2.727-0.415-2.004-1.155-2.727c-0.739-0.723-1.742-1.13-2.788-1.13s-2.049 0.406-2.788 1.13c-0.739 0.723-1.155 1.704-1.155 2.727s0.415 2.004 1.155 2.727c0.739 0.723 1.742 1.13 2.788 1.13z"></path>
</svg>
