<!-- Generated by IcoMoon.io -->
<svg version="1.1" xmlns="http://www.w3.org/2000/svg" width="24" height="24" viewBox="0 0 24 24">
<path fill="#3bb3ff" d="M16.472 15.029l-4.472 4.472-4.472-4.472c-3.352 0.145-6.028 2.887-6.028 6.271v0.45c0 1.242 1.008 2.25 2.25 2.25h16.5c1.242 0 2.25-1.008 2.25-2.25v-0.45c0-3.384-2.676-6.126-6.028-6.271zM2.138 3.742l0.3 0.070v2.737c-0.328 0.197-0.563 0.539-0.563 0.951 0 0.394 0.216 0.722 0.52 0.923l-0.731 2.92c-0.080 0.324 0.098 0.656 0.356 0.656h1.959c0.258 0 0.436-0.333 0.356-0.656l-0.731-2.92c0.305-0.202 0.52-0.53 0.52-0.923 0-0.412-0.234-0.755-0.563-0.951v-2.466l3.094 0.745c-0.403 0.806-0.656 1.706-0.656 2.672 0 3.314 2.686 6 6 6s6-2.686 6-6c0-0.966-0.248-1.866-0.656-2.672l4.514-1.087c0.853-0.206 0.853-1.27 0-1.476l-8.925-2.156c-0.609-0.145-1.252-0.145-1.861 0l-8.934 2.151c-0.848 0.206-0.848 1.275 0 1.481z"></path>
</svg>
