<!-- Generated by IcoMoon.io -->
<svg version="1.1" xmlns="http://www.w3.org/2000/svg" width="24" height="24" viewBox="0 0 24 24">
<path fill="#3bb3ff" opacity="0.5" d="M13.308 14.65l-3.975 3.913-3.975-3.913c-2.979 0.127-5.358 2.526-5.358 5.488v0.394c0 1.087 0.896 1.969 2 1.969h14.667c1.104 0 2-0.882 2-1.969v-0.394c0-2.961-2.379-5.361-5.358-5.488zM0.567 4.774l0.267 0.062v2.395c-0.292 0.172-0.5 0.472-0.5 0.833 0 0.345 0.192 0.632 0.462 0.808l-0.65 2.555c-0.071 0.283 0.088 0.574 0.317 0.574h1.742c0.229 0 0.387-0.291 0.317-0.574l-0.65-2.555c0.271-0.176 0.462-0.463 0.462-0.808 0-0.361-0.208-0.66-0.5-0.833v-2.157l2.75 0.652c-0.358 0.705-0.583 1.493-0.583 2.338 0 2.9 2.387 5.25 5.333 5.25s5.333-2.35 5.333-5.25c0-0.845-0.221-1.632-0.583-2.338l4.012-0.952c0.758-0.18 0.758-1.111 0-1.292l-7.933-1.887c-0.542-0.127-1.112-0.127-1.654 0l-7.942 1.883c-0.754 0.18-0.754 1.116 0 1.296z"></path>
<path fill="#3bb3ff" d="M18.642 14.65l-3.975 3.913-3.975-3.913c-2.979 0.127-5.358 2.526-5.358 5.488v0.394c0 1.087 0.896 1.969 2 1.969h14.667c1.104 0 2-0.882 2-1.969v-0.394c0-2.961-2.379-5.361-5.358-5.488zM5.9 4.774l0.267 0.062v2.395c-0.292 0.172-0.5 0.472-0.5 0.833 0 0.345 0.192 0.632 0.462 0.808l-0.65 2.555c-0.071 0.283 0.088 0.574 0.317 0.574h1.742c0.229 0 0.388-0.291 0.317-0.574l-0.65-2.555c0.271-0.176 0.462-0.463 0.462-0.808 0-0.361-0.208-0.66-0.5-0.833v-2.157l2.75 0.652c-0.358 0.705-0.583 1.493-0.583 2.338 0 2.9 2.388 5.25 5.333 5.25s5.333-2.35 5.333-5.25c0-0.845-0.221-1.632-0.583-2.338l4.012-0.952c0.758-0.18 0.758-1.111 0-1.292l-7.933-1.887c-0.542-0.127-1.113-0.127-1.654 0l-7.942 1.883c-0.754 0.18-0.754 1.116 0 1.296z"></path>
</svg>
