<!-- Generated by IcoMoon.io -->
<svg version="1.1" xmlns="http://www.w3.org/2000/svg" width="24" height="24" viewBox="0 0 24 24">
<path fill="#3bb3ff" d="M21.625 0h-16.5c-1.094 0-2.143 0.421-2.917 1.172s-1.208 1.768-1.208 2.828v16c0 1.061 0.435 2.078 1.208 2.828s1.823 1.172 2.917 1.172h16.5c0.365 0 0.714-0.14 0.972-0.39s0.403-0.589 0.403-0.943v-21.333c0-0.354-0.145-0.693-0.403-0.943s-0.608-0.391-0.972-0.391zM5.125 21.333c-0.365 0-0.714-0.14-0.972-0.39s-0.403-0.589-0.403-0.943 0.145-0.693 0.403-0.943c0.258-0.25 0.608-0.39 0.972-0.39h15.125v2.667h-15.125z"></path>
</svg>
